<svg id="filled_outline" height="512" viewBox="0 0 512 512" width="512" xmlns="http://www.w3.org/2000/svg" data-name="filled outline"><path d="m424 368h-384a16 16 0 0 1 -16-16v-256a16 16 0 0 1 16-16h368a16 16 0 0 1 16 16z" fill="#548aff"/><path d="m280 336 24 96h160l24-96z" fill="#c78640"/><path d="m400 376h48l22.27529-59.40076a27.088 27.088 0 0 0 1.72471-9.51124 27.088 27.088 0 0 0 -27.088-27.088h-44.912z" fill="#ffa100"/><path d="m72 128h64v64h-64z" fill="#ffcc4d"/><path d="m328 152v-24l24-16 24 16v24l-24 16z" fill="#02c26a"/><path d="m360 336v64h48l18.25864-91.29321a24 24 0 0 0 -23.53393-28.70679h-42.72471a24 24 0 0 0 -24 24v32z" fill="#ffb401"/><path d="m304 336v-8a24 24 0 0 1 24-24h24a24 24 0 0 1 24 24v40h-48v-32z" fill="#ffc431"/><path d="m40 376h224v-16h-224a8.00917 8.00917 0 0 1 -8-8v-256a8.00917 8.00917 0 0 1 8-8h368a8.00917 8.00917 0 0 1 8 8v160h16v-160a24.02718 24.02718 0 0 0 -24-24h-368a24.02718 24.02718 0 0 0 -24 24v256a24.02718 24.02718 0 0 0 24 24z"/><path d="m144 192v-64a8.00008 8.00008 0 0 0 -8-8h-64a8.00008 8.00008 0 0 0 -8 8v64a8.00008 8.00008 0 0 0 8 8h64a8.00008 8.00008 0 0 0 8-8zm-16-8h-48v-16h24v-16h-24v-16h48z"/><path d="m380.4375 121.34375-24-16a7.99771 7.99771 0 0 0 -8.875 0l-24 16a7.99943 7.99943 0 0 0 -3.5625 6.65625v24a7.99943 7.99943 0 0 0 3.5625 6.65625l24 16a7.99891 7.99891 0 0 0 8.875 0l24-16a7.99943 7.99943 0 0 0 3.5625-6.65625v-24a7.99943 7.99943 0 0 0 -3.5625-6.65625zm-12.4375 26.375-16 10.6665-16-10.6665v-15.4375l16-10.6665 16 10.6665z"/><path d="m304 184h24v16h-24z"/><path d="m344 184h48v16h-48z"/><path d="m72 232h64v16h-64z"/><path d="m152 232h64v16h-64z"/><path d="m232 232h64v16h-64z"/><path d="m312 232h64v16h-64z"/><path d="m64 312h64v16h-64z"/><path d="m144 312h56v16h-56z"/><path d="m216 312h16v16h-16z"/><path d="m152 280h56v16h-56z"/><path d="m480 307.08789a35.12746 35.12746 0 0 0 -35.08789-35.08789h-84.91211a32.05723 32.05723 0 0 0 -30.9873 24h-1.0127a32.03635 32.03635 0 0 0 -32 32h-16a7.99948 7.99948 0 0 0 -7.76074 9.94043l24 96a7.9992 7.9992 0 0 0 7.76074 6.05957h160a7.9992 7.9992 0 0 0 7.76074-6.05957l24-96a7.99948 7.99948 0 0 0 -7.76074-9.94043h-13.456l3.22167-8.59131a34.96605 34.96605 0 0 0 2.23433-12.3208zm-16 0a19.03523 19.03523 0 0 1 -1.21484 6.70215l-20.32911 54.20996h-19.89746l11.54493-57.72412a31.86594 31.86594 0 0 0 -3.66529-22.27588h14.47388a19.10945 19.10945 0 0 1 19.08789 19.08789zm-104-19.08789h42.72461a16.00063 16.00063 0 0 1 15.68945 19.13818l-16.97265 84.86182h-33.44141v-16h8a8.00008 8.00008 0 0 0 8-8v-40a32.03635 32.03635 0 0 0 -32-32h-5.835a15.99656 15.99656 0 0 1 13.835-8zm-32 24h24a16.01833 16.01833 0 0 1 16 16v32h-32v-24a8.00008 8.00008 0 0 0 -8-8h-16a16.01833 16.01833 0 0 1 16-16zm149.75391 32-20 80h-147.50782l-20-80h29.75391v24a8.00008 8.00008 0 0 0 8 8h24v24a8.00008 8.00008 0 0 0 8 8h48a8.00041 8.00041 0 0 0 7.84473-6.43115l3.51367-17.56885h28.6416a7.999 7.999 0 0 0 7.49023-5.19092l13.05347-34.80908z"/></svg>