<?xml version="1.0" encoding="UTF-8"?> <svg xmlns="http://www.w3.org/2000/svg" viewBox="0 0 503 455"><defs><style>.cls-1{fill:#e6e6e6;}.cls-2{fill:#fff;}.cls-10,.cls-12,.cls-3{fill:#3cd458;}.cls-3,.cls-4{opacity:0.5;}.cls-4{fill:red;}.cls-5{fill:#f2f2f2;}.cls-6{fill:#ffc1c7;}.cls-7{fill:#3f3d56;}.cls-8{fill:#2f2e41;}.cls-9{opacity:0.1;isolation:isolate;}.cls-11{fill:#9e616a;}.cls-12{opacity:0.2;}</style></defs><title>1Artboard 1</title><g id="Layer_4" data-name="Layer 4"><g id="box2"><polygon class="cls-1" points="467.39 25.13 396.17 25.13 360.56 86.81 396.17 148.49 467.39 148.49 503 86.81 467.39 25.13"></polygon><path class="cls-2" d="M400.16,141.57h63.23L495,86.81,463.39,32.05H400.16L368.55,86.81Z"></path><path class="cls-3" d="M402.64,69.32l-2.91,3.87a1,1,0,0,1-1.52.06l-1.93-2.17a1,1,0,0,1,1.47-1.31l1.13,1.28,2.18-2.91a1,1,0,0,1,1.58,1.18Z"></path><path class="cls-3" d="M402.64,85.32l-2.91,3.87a1,1,0,0,1-1.52.06l-1.93-2.17a1,1,0,0,1,1.47-1.31l1.13,1.28,2.18-2.91a1,1,0,0,1,1.58,1.18Z"></path><path class="cls-4" d="M402,101.43l-1.24,1.24,1.24,1.24a1,1,0,0,1,0,1.39,1,1,0,0,1-1.39,0l-1.24-1.24-1.24,1.24a1,1,0,0,1-1.39-1.39l1.24-1.24-1.24-1.24a1,1,0,0,1,0-1.39,1,1,0,0,1,1.39,0l1.24,1.24L400.6,100a1,1,0,0,1,1.39,1.39Z"></path><rect class="cls-3" x="411.65" y="68.14" width="55.42" height="4.67"></rect><rect class="cls-3" x="411.65" y="84.48" width="55.42" height="4.67"></rect><rect class="cls-4" x="411.65" y="100.81" width="55.42" height="4.67"></rect></g><g id="Layer_7" data-name="Layer 7"><ellipse class="cls-5" cx="337.84" cy="418.17" rx="74.39" ry="11.94"></ellipse><path class="cls-6" d="M387,204.15s1.11,8.33-1.67,11.66-7.22,25.54-7.22,25.54v13.32s17.22-25,20.55-35a26.87,26.87,0,0,0,0-17.77Z"></path><path class="cls-7" d="M385.3,163.07l.24.26a35.36,35.36,0,0,1,6.63,11c3.65,9.68,11.48,33.53,8.68,35.94-3.89,3.33-15,5.55-15.55,5s-11.66-35-11.66-35Z"></path><path class="cls-7" d="M367.26,399s13.32,2.78,13.88,0a22,22,0,0,1,1.66-5s12.08.5,8.93,11.09a4.48,4.48,0,0,1-1.94,2.5c-2.88,1.76-9.65,5.91-13.09,8.06-2.59,1.62-6.31.41-9-.88a4.8,4.8,0,0,1-2.59-5.25Z"></path><path class="cls-7" d="M329,400.68s-13.32,2.78-13.88,0a22.08,22.08,0,0,0-1.66-5s-12.06.51-8.93,11.06a4.49,4.49,0,0,0,2,2.55c2.89,1.77,9.63,5.9,13.06,8,2.84,1.77,7,.16,9.69-1.25a3.86,3.86,0,0,0,2-4.17Z"></path><path class="cls-6" d="M312.3,211.37S311.19,219.7,314,223s7.22,16.1,7.22,16.1v13.32S304,236.91,300.64,226.91a26.84,26.84,0,0,1,0-17.76Z"></path><circle class="cls-6" cx="351.16" cy="129.2" r="13.88"></circle><path class="cls-6" d="M362.26,134.75s-3.88,17.77,0,20-23.31,0-23.31,0,6.1-15,3.33-20S362.26,134.75,362.26,134.75Z"></path><path class="cls-8" d="M375.59,253s5,7.21,3.33,29.42S375.59,328,375.59,328s12.21,69.95,8.32,71.62-16.65,3.33-18.32,1.66-9.43-66.62-9.43-66.62l-7.22-53.29-11.1,61.07s-6.11,59.4-10.55,62.18c-3.18,2-9.47.56-12.81-.41a2.9,2.9,0,0,1-2.09-2.91c.41-9.34,2.23-46.21,6.57-68.86,5-26.09-5-78.27,3.89-79.38S375.59,253,375.59,253Z"></path><path class="cls-7" d="M336.73,152.52s2.22-10,10.54-8.88,13.88.55,15.55,6.1,19.43,10,19.43,10,4.44.55,3.88,7.77-11.65,33.86-11.65,33.86.55,22.21,3.33,32.2,2.77,22.21-3.33,25-44.42,12.77-53.3.55c0,0-5-17.76-1.67-25S319,198.6,319,198.6l-10.55-23.32s3.33-11.1,12.77-14.43A56.76,56.76,0,0,0,336.73,152.52Z"></path><path class="cls-7" d="M312.85,170.29l-4.44,5S295.09,208,299,211.37s15,5.55,15.55,5,10-28.86,10-28.86Z"></path><path class="cls-8" d="M367.26,120.88a8.59,8.59,0,0,0-2.78,5.55c-.55,3.88-4-2.22-4.75,5.83s-14.12,13.6-19.12,9.71-13.32-28.31-1.66-32.2,23.31-3.33,25.53.56S367.26,120.88,367.26,120.88Z"></path><path class="cls-9" d="M356.39,132.26c.8-8,4.21-1.95,4.76-5.83a8.59,8.59,0,0,1,2.78-5.55s-.56-6.67-2.78-10.55c-1.06-1.86-4.29-3-8.64-3.17,6-.27,10.65.86,12,3.17,2.22,3.88,2.78,10.55,2.78,10.55a8.59,8.59,0,0,0-2.78,5.55c-.55,3.88-4-2.22-4.75,5.83-.68,6.82-10.35,11.85-16.33,10.85C349.09,142.33,355.84,137.91,356.39,132.26Z"></path></g></g><g id="Layer_5" data-name="Layer 5"><g id="flower"><rect class="cls-7" x="10.26" y="426" width="179.74" height="1"></rect><path class="cls-10" d="M31.36,413.74c-2.13,7.88-9.43,12.75-9.43,12.75s-3.84-7.89-1.71-15.76S29.65,398,29.65,398,33.49,405.87,31.36,413.74Z"></path><path class="cls-10" d="M12,413.74c2.13,7.88,9.43,12.75,9.43,12.75s3.84-7.89,1.71-15.76S13.69,398,13.69,398,9.85,405.87,12,413.74Z"></path><path class="cls-7" d="M15.11,412.05c5.84,5.69,6.56,14.44,6.56,14.44s-8.76-.48-14.61-6.17S.5,405.88.5,405.88,9.27,406.36,15.11,412.05Z"></path><path class="cls-7" d="M28.23,412.05c-5.85,5.69-6.56,14.44-6.56,14.44s8.76-.48,14.61-6.17,6.56-14.44,6.56-14.44S34.07,406.36,28.23,412.05Z"></path></g><path class="cls-11" d="M132.6,172.58s-10.51,0-11.68,6.42-2.92,76.52-1.75,85.28,1.17,7,1.17,7-2.33,16.65,2.92,17.38,5.25-19.13,5.25-19.13l4.09-71.26Z"></path><path class="cls-11" d="M178.28,172.58s10.51,0,11.68,6.42,2.92,76.52,1.75,85.28-1.17,7-1.17,7,2.33,16.65-2.92,17.38-5.25-19.13-5.25-19.13l-4.09-71.26Z"></path><path class="cls-8" d="M131.11,416.57h-4.55A10.43,10.43,0,0,0,116.13,427h28.39V413.59H131.11Z"></path><path class="cls-8" d="M176.29,416.57h4.55A10.43,10.43,0,0,1,191.27,427H162.89V413.59h13.4Z"></path><circle class="cls-11" cx="150.95" cy="143.96" r="15.19"></circle><path class="cls-11" d="M147.45,152.14s-1.75,19.27-4.09,21S167.89,172,167.89,172s-9.34-14-7.59-18.69S147.45,152.14,147.45,152.14Z"></path><path class="cls-8" d="M181.91,172.58s-32.13-13.44-53.15,0c0,0-5.26,13.43-1.17,21s10.51,25.7,4.09,38,.58,7,.58,7-8.18,32.71-9.34,58.41,3.5,118,7,118.57,14.6,1.75,15.77,0S155,291.73,155,291.73s3.51,125,7,125,12.85,0,14.6-2.93,16.36-115.64,11.1-139-8.76-35-8.76-35,6.42-4.09,4.67-6.43-10.51-27.45-6.42-31.54S181.91,172.58,181.91,172.58Z"></path><circle class="cls-8" cx="160.59" cy="134.81" r="24.53"></circle><path class="cls-8" d="M175.91,122.53a16.53,16.53,0,0,1-12.47-19.1c-.07.25-.14.5-.2.76a16.53,16.53,0,0,0,32.18,7.56c.06-.26.11-.51.16-.77A16.54,16.54,0,0,1,175.91,122.53Z"></path><circle class="cls-8" cx="176.91" cy="113.72" r="12"></circle></g><g id="Layer_6" data-name="Layer 6"><g id="box3"><rect class="cls-12" x="2" y="92.09" width="96.82" height="43.28"></rect><rect class="cls-7" x="27.04" y="105.75" width="46.73" height="1.06"></rect><rect class="cls-7" x="27.04" y="113.19" width="46.73" height="1.06"></rect><rect class="cls-7" x="27.04" y="120.64" width="46.73" height="1.06"></rect><path class="cls-7" d="M112.22,135.86H1.5V79.26H112.22Zm-109.73-1H111.23V80.25H2.49Z"></path></g><g id="box2-2" data-name="box2"><rect class="cls-7" x="288.71" y="34.74" width="46.73" height="1.06"></rect><rect class="cls-7" x="288.71" y="42.19" width="46.73" height="1.06"></rect><rect class="cls-7" x="288.71" y="49.64" width="46.73" height="1.06"></rect><path class="cls-8" d="M70,80.06C78,62,90.19,50,106.12,44.66c11.82-4,25.49-4.38,40.64-1.13a108.59,108.59,0,0,1,31.75,12.34C231.08,86.38,263.59,86.65,281.6,81.5c19.74-5.64,27-18.87,27-19l.88.47c-.08.13-7.47,13.72-27.61,19.49-11.62,3.32-25.19,3.46-40.33.41-18.86-3.81-40.24-12.6-63.57-26.13A107.57,107.57,0,0,0,146.55,44.5c-24.84-5.33-58.13-3.42-75.69,36Z"></path><rect class="cls-12" x="141.52" y="54.85" width="96.82" height="43.28"></rect><rect class="cls-7" x="166.57" y="68.51" width="46.73" height="1.06"></rect><rect class="cls-7" x="166.57" y="75.96" width="46.73" height="1.06"></rect><rect class="cls-7" x="165.08" y="81.91" width="46.73" height="1.06"></rect><path class="cls-7" d="M251.75,98.62H141V42H251.75ZM142,97.63H250.76V43H142Z"></path></g></g></svg> 